<svg xmlns="http://www.w3.org/2000/svg" width="23.376" height="29.163" viewBox="0 0 23.376 29.163">
  <g id="download-arrow" transform="translate(0)">
    <g id="Group_49" data-name="Group 49" transform="translate(0)">
      <path id="Path_94" data-name="Path 94" d="M75.576,466.114H54.523a1.169,1.169,0,0,0-1.166,1.166v1.556A1.169,1.169,0,0,0,54.523,470H75.568a1.169,1.169,0,0,0,1.166-1.166V467.28A1.149,1.149,0,0,0,75.576,466.114Z" transform="translate(-53.357 -440.838)" fill="#fff"/>
      <path id="Path_95" data-name="Path 95" d="M108.821,23.19a1.164,1.164,0,0,0,.821.344,1.149,1.149,0,0,0,.821-.344l7.973-7.973a1.174,1.174,0,0,0,0-1.651l-1.1-1.1a1.174,1.174,0,0,0-1.651,0l-4.1,4.1V1.166A1.169,1.169,0,0,0,110.418,0h-1.556A1.164,1.164,0,0,0,107.7,1.166v15.4l-4.1-4.1a1.174,1.174,0,0,0-1.651,0l-1.1,1.1a1.174,1.174,0,0,0,0,1.651Z" transform="translate(-97.944 0)" fill="#fff"/>
    </g>
  </g>
</svg>