<svg xmlns="http://www.w3.org/2000/svg" width="48.125" height="55" viewBox="0 0 48.125 55">
  <g id="pdf" transform="translate(0)">
    <path id="Path_73" data-name="Path 73" d="M99.438,0A3.448,3.448,0,0,0,96,3.438V51.563A3.448,3.448,0,0,0,99.438,55h34.375a3.448,3.448,0,0,0,3.438-3.437V13.75L123.5,0Z" transform="translate(-89.125)" fill="#f6f9fc"/>
    <path id="Path_74" data-name="Path 74" d="M355.438,13.75H365.75L352,0V10.313A3.448,3.448,0,0,0,355.438,13.75Z" transform="translate(-317.625)" fill="#b0b7bd"/>
    <path id="Path_75" data-name="Path 75" d="M394.313,138.313,384,128h10.313Z" transform="translate(-346.188 -114.25)" fill="#e1e2e3"/>
    <path id="Path_76" data-name="Path 76" d="M73.25,258.906a1.724,1.724,0,0,1-1.719,1.719H33.719A1.724,1.724,0,0,1,32,258.906V241.719A1.724,1.724,0,0,1,33.719,240H71.531a1.724,1.724,0,0,1,1.719,1.719Z" transform="translate(-32 -214.219)" fill="#2d465b"/>
    <g id="Group_42" data-name="Group 42" transform="translate(7.492 31.616)">
      <path id="Path_77" data-name="Path 77" d="M101.744,295.269a.946.946,0,0,1,.933-.949h3.175a3.436,3.436,0,0,1,0,6.872h-2.295v1.815a.863.863,0,0,1-.88.947.926.926,0,0,1-.933-.947Zm1.813.782v3.424h2.295a1.713,1.713,0,0,0,0-3.424Z" transform="translate(-101.744 -294.32)" fill="#fff"/>
      <path id="Path_78" data-name="Path 78" d="M188.773,304.982a.86.86,0,0,1-.949-.851v-7.807a.935.935,0,0,1,.949-.853h3.147c6.28,0,6.143,9.51.124,9.51Zm.866-7.832v6.157h2.281c3.711,0,3.876-6.157,0-6.157Z" transform="translate(-178.577 -295.348)" fill="#fff"/>
      <path id="Path_79" data-name="Path 79" d="M288.934,297.245v2.185h3.5a1.063,1.063,0,0,1,.99.975.955.955,0,0,1-.99.825h-3.5v2.886a.814.814,0,0,1-.823.851.873.873,0,0,1-.975-.851v-7.807a.869.869,0,0,1,.975-.853h4.825a.857.857,0,0,1,.962.853.95.95,0,0,1-.962.935h-4Z" transform="translate(-267.221 -295.334)" fill="#fff"/>
    </g>
    <path id="Path_80" data-name="Path 80" d="M128.656,417.719H96v1.719h32.656a1.724,1.724,0,0,0,1.719-1.719V416A1.724,1.724,0,0,1,128.656,417.719Z" transform="translate(-89.125 -371.313)" fill="#cad1d8"/>
  </g>
</svg>